<svg width="163" height="25" viewBox="0 0 163 25" fill="none" xmlns="http://www.w3.org/2000/svg">
<path d="M0.792 9.552C0.792 7.888 1.152 6.408 1.872 5.112C2.592 3.8 3.592 2.784 4.872 2.064C6.168 1.328 7.632 0.959999 9.264 0.959999C11.264 0.959999 12.976 1.488 14.4 2.544C15.824 3.6 16.776 5.04 17.256 6.864H12.744C12.408 6.16 11.928 5.624 11.304 5.256C10.696 4.888 10 4.704 9.216 4.704C7.952 4.704 6.928 5.144 6.144 6.024C5.36 6.904 4.968 8.08 4.968 9.552C4.968 11.024 5.36 12.2 6.144 13.08C6.928 13.96 7.952 14.4 9.216 14.4C10 14.4 10.696 14.216 11.304 13.848C11.928 13.48 12.408 12.944 12.744 12.24H17.256C16.776 14.064 15.824 15.504 14.4 16.56C12.976 17.6 11.264 18.12 9.264 18.12C7.632 18.12 6.168 17.76 4.872 17.04C3.592 16.304 2.592 15.288 1.872 13.992C1.152 12.696 0.792 11.216 0.792 9.552ZM23.8733 6.84C24.3533 6.104 24.9533 5.528 25.6733 5.112C26.3933 4.68 27.1933 4.464 28.0733 4.464V8.808H26.9453C25.9213 8.808 25.1533 9.032 24.6413 9.48C24.1293 9.912 23.8733 10.68 23.8733 11.784V18H19.7693V4.608H23.8733V6.84ZM43.7149 4.608L35.3149 24.36H30.8989L33.9709 17.544L28.5229 4.608H33.1069L36.2029 12.984L39.2749 4.608H43.7149ZM49.3029 6.504C49.7029 5.88 50.2549 5.376 50.9589 4.992C51.6629 4.608 52.4869 4.416 53.4309 4.416C54.5349 4.416 55.5349 4.696 56.4309 5.256C57.3269 5.816 58.0309 6.616 58.5429 7.656C59.0709 8.696 59.3349 9.904 59.3349 11.28C59.3349 12.656 59.0709 13.872 58.5429 14.928C58.0309 15.968 57.3269 16.776 56.4309 17.352C55.5349 17.912 54.5349 18.192 53.4309 18.192C52.5029 18.192 51.6789 18 50.9589 17.616C50.2549 17.232 49.7029 16.736 49.3029 16.128V24.384H45.1989V4.608H49.3029V6.504ZM55.1589 11.28C55.1589 10.256 54.8709 9.456 54.2949 8.88C53.7349 8.288 53.0389 7.992 52.2069 7.992C51.3909 7.992 50.6949 8.288 50.1189 8.88C49.5589 9.472 49.2789 10.28 49.2789 11.304C49.2789 12.328 49.5589 13.136 50.1189 13.728C50.6949 14.32 51.3909 14.616 52.2069 14.616C53.0229 14.616 53.7189 14.32 54.2949 13.728C54.8709 13.12 55.1589 12.304 55.1589 11.28ZM68.952 14.52V18H66.864C65.376 18 64.216 17.64 63.384 16.92C62.552 16.184 62.136 14.992 62.136 13.344V8.016H60.504V4.608H62.136V1.344H66.24V4.608H68.928V8.016H66.24V13.392C66.24 13.792 66.336 14.08 66.528 14.256C66.72 14.432 67.04 14.52 67.488 14.52H68.952ZM77.334 18.192C76.022 18.192 74.838 17.912 73.782 17.352C72.742 16.792 71.918 15.992 71.31 14.952C70.718 13.912 70.422 12.696 70.422 11.304C70.422 9.928 70.726 8.72 71.334 7.68C71.942 6.624 72.774 5.816 73.83 5.256C74.886 4.696 76.07 4.416 77.382 4.416C78.694 4.416 79.878 4.696 80.934 5.256C81.99 5.816 82.822 6.624 83.43 7.68C84.038 8.72 84.342 9.928 84.342 11.304C84.342 12.68 84.03 13.896 83.406 14.952C82.798 15.992 81.958 16.792 80.886 17.352C79.83 17.912 78.646 18.192 77.334 18.192ZM77.334 14.64C78.118 14.64 78.782 14.352 79.326 13.776C79.886 13.2 80.166 12.376 80.166 11.304C80.166 10.232 79.894 9.408 79.35 8.832C78.822 8.256 78.166 7.968 77.382 7.968C76.582 7.968 75.918 8.256 75.39 8.832C74.862 9.392 74.598 10.216 74.598 11.304C74.598 12.376 74.854 13.2 75.366 13.776C75.894 14.352 76.55 14.64 77.334 14.64ZM98.6393 1.152V4.44H94.1753V18H90.0713V4.44H85.6073V1.152H98.6393ZM106.795 18.192C105.483 18.192 104.299 17.912 103.243 17.352C102.203 16.792 101.379 15.992 100.771 14.952C100.179 13.912 99.8829 12.696 99.8829 11.304C99.8829 9.928 100.187 8.72 100.795 7.68C101.403 6.624 102.235 5.816 103.291 5.256C104.347 4.696 105.531 4.416 106.843 4.416C108.155 4.416 109.339 4.696 110.395 5.256C111.451 5.816 112.283 6.624 112.891 7.68C113.499 8.72 113.803 9.928 113.803 11.304C113.803 12.68 113.491 13.896 112.867 14.952C112.259 15.992 111.419 16.792 110.347 17.352C109.291 17.912 108.107 18.192 106.795 18.192ZM106.795 14.64C107.579 14.64 108.243 14.352 108.787 13.776C109.347 13.2 109.627 12.376 109.627 11.304C109.627 10.232 109.355 9.408 108.811 8.832C108.283 8.256 107.627 7.968 106.843 7.968C106.043 7.968 105.379 8.256 104.851 8.832C104.323 9.392 104.059 10.216 104.059 11.304C104.059 12.376 104.315 13.2 104.827 13.776C105.355 14.352 106.011 14.64 106.795 14.64ZM115.164 11.28C115.164 9.904 115.42 8.696 115.932 7.656C116.46 6.616 117.172 5.816 118.068 5.256C118.964 4.696 119.964 4.416 121.068 4.416C121.948 4.416 122.748 4.6 123.468 4.968C124.204 5.336 124.78 5.832 125.196 6.456V0.24H129.3V18H125.196V16.08C124.812 16.72 124.26 17.232 123.54 17.616C122.836 18 122.012 18.192 121.068 18.192C119.964 18.192 118.964 17.912 118.068 17.352C117.172 16.776 116.46 15.968 115.932 14.928C115.42 13.872 115.164 12.656 115.164 11.28ZM125.196 11.304C125.196 10.28 124.908 9.472 124.332 8.88C123.772 8.288 123.084 7.992 122.268 7.992C121.452 7.992 120.756 8.288 120.18 8.88C119.62 9.456 119.34 10.256 119.34 11.28C119.34 12.304 119.62 13.12 120.18 13.728C120.756 14.32 121.452 14.616 122.268 14.616C123.084 14.616 123.772 14.32 124.332 13.728C124.908 13.136 125.196 12.328 125.196 11.304ZM131.453 11.28C131.453 9.904 131.709 8.696 132.221 7.656C132.749 6.616 133.461 5.816 134.357 5.256C135.253 4.696 136.253 4.416 137.357 4.416C138.301 4.416 139.125 4.608 139.829 4.992C140.549 5.376 141.101 5.88 141.485 6.504V4.608H145.589V18H141.485V16.104C141.085 16.728 140.525 17.232 139.805 17.616C139.101 18 138.277 18.192 137.333 18.192C136.245 18.192 135.253 17.912 134.357 17.352C133.461 16.776 132.749 15.968 132.221 14.928C131.709 13.872 131.453 12.656 131.453 11.28ZM141.485 11.304C141.485 10.28 141.197 9.472 140.621 8.88C140.061 8.288 139.373 7.992 138.557 7.992C137.741 7.992 137.045 8.288 136.469 8.88C135.909 9.456 135.629 10.256 135.629 11.28C135.629 12.304 135.909 13.12 136.469 13.728C137.045 14.32 137.741 14.616 138.557 14.616C139.373 14.616 140.061 14.32 140.621 13.728C141.197 13.136 141.485 12.328 141.485 11.304ZM162.238 4.608L153.838 24.36H149.422L152.494 17.544L147.046 4.608H151.63L154.726 12.984L157.798 4.608H162.238Z" fill="#2F7BCF"/>
</svg>
